<svg version="1.1" preserveAspectRatio="none" xmlns="http://www.w3.org/2000/svg" width="500" height="500" viewBox="0 0 500 500"><rect width="100%" height="100%" fill="#FFFFFF" fill-opacity="1"/><svg viewBox="131.3485 232.1289 436.6544 90" width="333" height="68.63551586792667" x="83.5px" y="215.6822px" xmlns="http://www.w3.org/2000/svg" xmlns:xlink="http://www.w3.org/1999/xlink" preserveAspectRatio="none"><defs></defs><style>.aD6z1nYkhcolor {fill:#42A5FF;fill-opacity:1;}.aIptOCySncolors-3 {fill:#3CB9EF;fill-opacity:1;}.aIptOCySncolors-4 {fill:#83EDFF;fill-opacity:1;}.aIptOCySncolors-5 {fill:#AEDDFF;fill-opacity:1;}.aIptOCySncolors-6 {fill:#FFF1FF;fill-opacity:1;}.aIptOCySncolors-7 {fill:#FFE4CE;fill-opacity:1;}.icon1 {fill:#42A5FF;fill-opacity:1;}.icon2 {fill:#6DDDD0;fill-opacity:1;}.icon3 {fill:#FFD4D4;fill-opacity:1;}.icon3-str {stroke:#FFD4D4;stroke-opacity:1;}</style><g opacity="1" transform="rotate(0 131.3485 232.1289)">
<svg width="69.6033" height="90" x="131.3485" y="232.1289" version="1.1" preserveAspectRatio="none" viewBox="8.96500015258789 4.366703987121582 30.935001373291016 40.00029373168945">
  <g transform="matrix(1 0 0 1 0 0)" class="icon1"><path d="M39.9,37.33c-2.157-1.76-2.952-26.846-2.952-26.846h-5.28c0.026,0.458,0.045,1.14,0.009,1.742  c-0.618-2.631-1.99-6.874-4.572-7.366c-2.284-0.429-3.967,2.755-5.005,5.624h-3.517c0.776-1.771,2.181-4.276,3.751-4.694  c0.479-0.131,0.961-0.036,1.453,0.271c0.208-0.325,0.501-0.731,0.849-1.074c-0.857-0.578-1.751-0.758-2.658-0.515  c-2.491,0.67-4.207,4.335-4.875,6.012h-1.268c0,0-2.212,0.74-4.198,1.814C11.862,23.592,8.965,39.37,8.965,39.37  s4.658,3.973,5.164,4.487c0.343-0.795,2.274-14.471,2.897-19.241c0.284,4.996-1.191,19.751-1.191,19.751S35.64,38.464,39.9,37.33z   M26.848,6.197c1.205,0.23,2.216,2.148,2.925,4.288h-6.188C24.541,8.032,25.76,5.985,26.848,6.197z"></path></g>
</svg>
</g><g opacity="1" transform="rotate(0 220.9518 247.1289)">
<svg width="347.0511" height="60" x="220.9518" y="247.1289" version="1.1" preserveAspectRatio="none" viewBox="0.8203 -27.0312 142.79299999999998 27.5391">
  <g transform="matrix(1 0 0 1 0 0)" class="aD6z1nYkhcolor"><path id="id-D6z1nYkh8" d="M1.60 0L0.82-3.18L12.38-20.66L14.53-23.13Q12.17-23.11 10.01-23.11Q7.85-23.11 6.17-23.11L6.17-23.11L2.52-23.11Q2.36-23.75 2.29-24.19Q2.23-24.63 2.23-24.94L2.23-24.94Q2.23-25.25 2.28-25.55Q2.32-25.84 2.38-26.05L2.38-26.05Q2.46-26.31 2.56-26.52L2.56-26.52L18.69-26.52L19.08-23.36L7.48-5.90L5.10-3.46Q6.27-3.46 7.50-3.46Q8.73-3.46 9.93-3.47Q11.13-3.48 12.28-3.48Q13.42-3.48 14.41-3.48L14.41-3.48L18.98-3.48Q19.00-3.32 19.04-3.16L19.04-3.16Q19.06-3.03 19.08-2.85Q19.10-2.68 19.10-2.52L19.10-2.52Q19.10-2.11 18.98-1.47Q18.87-0.84 18.54 0L18.54 0L1.60 0Z M20.31 0L28.01-26.52L34.67-26.52L42.60 0L38.16 0L35.74-8.11L27.17-8.11L24.86 0L20.31 0ZM28.03-11.50L34.82-11.50L31.25-24.51L28.03-11.50Z M55.68-0.96L55.68-0.96Q55.72-1.41 55.82-1.97L55.82-1.97Q55.92-2.44 56.08-3.10Q56.25-3.75 56.58-4.51L56.58-4.51Q57.64-4.16 58.73-3.89L58.73-3.89Q59.67-3.65 60.78-3.46Q61.89-3.26 62.91-3.26L62.91-3.26Q64.45-3.26 65.50-3.50Q66.54-3.73 67.18-4.19Q67.81-4.65 68.09-5.34Q68.36-6.04 68.36-6.95L68.36-6.95Q68.36-7.99 68.08-8.71Q67.79-9.43 67.22-9.96Q66.64-10.49 65.74-10.86Q64.84-11.23 63.61-11.58L63.61-11.58Q61.46-12.17 59.98-12.86Q58.50-13.55 57.57-14.45Q56.64-15.35 56.23-16.49Q55.82-17.64 55.82-19.10L55.82-19.10Q55.82-21.21 56.47-22.71Q57.13-24.22 58.33-25.18Q59.53-26.13 61.24-26.58Q62.95-27.03 65.06-27.03L65.06-27.03Q66.68-27.03 67.90-26.78Q69.12-26.52 69.96-26.23L69.96-26.23Q70.94-25.88 71.66-25.43L71.66-25.43Q71.60-24.98 71.43-24.45L71.43-24.45Q71.27-24.00 71.00-23.40Q70.72-22.79 70.23-22.09L70.23-22.09Q69.65-22.48 68.87-22.79L68.87-22.79Q68.18-23.07 67.22-23.29Q66.25-23.52 64.98-23.52L64.98-23.52Q63.59-23.52 62.65-23.30Q61.70-23.09 61.09-22.63Q60.49-22.17 60.22-21.47Q59.96-20.78 59.96-19.82L59.96-19.82Q59.96-18.75 60.23-18.04Q60.51-17.32 61.11-16.83Q61.72-16.33 62.69-15.96Q63.65-15.59 65.02-15.20L65.02-15.20Q67.07-14.63 68.52-13.98Q69.96-13.34 70.87-12.48Q71.78-11.62 72.20-10.44Q72.62-9.26 72.62-7.60L72.62-7.60Q72.62-5.55 72.09-4.03Q71.56-2.52 70.41-1.50Q69.26-0.49 67.44 0.01Q65.63 0.51 63.07 0.51L63.07 0.51Q61.54 0.51 60.20 0.28Q58.85 0.06 57.85-0.21L57.85-0.21Q56.66-0.55 55.68-0.96Z M78.26-5.59L78.26-16.93L75.70-16.93Q75.68-17.15 75.66-17.40L75.66-17.40Q75.64-17.62 75.63-17.91Q75.63-18.20 75.63-18.55L75.63-18.55Q75.63-18.91 75.64-19.21Q75.66-19.51 75.70-19.96L75.70-19.96L78.26-19.96L78.26-23.07L80.51-25.61L82.25-25.61L82.25-19.96L87.77-19.96Q87.81-19.77 87.84-19.49Q87.87-19.22 87.87-18.96L87.87-18.96Q87.87-18.52 87.78-18.14Q87.70-17.77 87.60-17.50L87.60-17.50Q87.48-17.19 87.32-16.93L87.32-16.93L82.25-16.93L82.25-5.61Q82.25-4.18 82.72-3.54Q83.20-2.89 84.26-2.89L84.26-2.89Q84.71-2.89 85.21-3.00Q85.70-3.11 86.15-3.26L86.15-3.26Q86.66-3.44 87.19-3.65L87.19-3.65Q87.58-3.14 87.80-2.66Q88.03-2.17 88.13-1.78L88.13-1.78Q88.24-1.33 88.26-0.94L88.26-0.94Q87.71-0.57 87.03-0.27L87.03-0.27Q86.43-0.02 85.59 0.19Q84.75 0.39 83.65 0.39L83.65 0.39Q82.13 0.39 81.10 0.01Q80.08-0.37 79.44-1.12Q78.81-1.88 78.54-3.00Q78.26-4.12 78.26-5.59L78.26-5.59Z M90.70-9.98L90.70-9.98Q90.70-12.56 91.40-14.53Q92.09-16.50 93.35-17.83Q94.61-19.16 96.36-19.84Q98.11-20.53 100.21-20.53L100.21-20.53Q102.38-20.53 104.12-19.89Q105.86-19.26 107.07-17.97Q108.28-16.68 108.93-14.76Q109.57-12.83 109.57-10.25L109.57-10.25Q109.57-7.68 108.92-5.68Q108.26-3.69 107.04-2.34Q105.82-1.00 104.09-0.30Q102.36 0.39 100.21 0.39L100.21 0.39Q97.99 0.39 96.22-0.26Q94.45-0.92 93.23-2.22Q92.01-3.52 91.36-5.46Q90.70-7.40 90.70-9.98ZM100.21-2.83L100.21-2.83Q101.50-2.83 102.45-3.39Q103.40-3.95 104.00-4.93Q104.61-5.92 104.90-7.28Q105.20-8.63 105.20-10.25L105.20-10.25Q105.20-13.75 104.00-15.59Q102.81-17.42 100.21-17.42L100.21-17.42Q98.91-17.42 97.94-16.87Q96.97-16.31 96.34-15.31Q95.70-14.32 95.39-12.95Q95.08-11.58 95.08-9.98L95.08-9.98Q95.08-6.45 96.34-4.64Q97.60-2.83 100.21-2.83Z M112.62-20.18L116.21-20.18L118.22-18.07Q118.44-18.55 118.78-18.99Q119.12-19.43 119.58-19.77Q120.04-20.10 120.62-20.29Q121.19-20.49 121.88-20.49L121.88-20.49Q122.44-20.49 122.97-20.40Q123.50-20.31 124.12-20.10L124.12-20.10Q124.14-20.06 124.17-19.79Q124.20-19.51 124.20-19.10L124.20-19.10Q124.20-18.79 124.16-18.37Q124.12-17.95 124.03-17.51Q123.95-17.07 123.78-16.64Q123.61-16.21 123.36-15.90L123.36-15.90L122.99-15.80Q122.60-16.00 122.12-16.13Q121.64-16.27 121.13-16.27L121.13-16.27Q120.35-16.27 119.82-16.16Q119.30-16.05 118.96-15.94L118.96-15.94Q118.57-15.80 118.34-15.63L118.34-15.63L118.34 0L114.16 0L114.16-16.39L112.62-17.97L112.62-20.18Z M126.27-9.79L126.27-9.79Q126.27-12.60 126.95-14.63Q127.64-16.66 128.87-17.97Q130.10-19.28 131.81-19.89Q133.52-20.51 135.57-20.51L135.57-20.51Q137.46-20.51 138.96-19.87Q140.45-19.24 141.48-18.09Q142.52-16.93 143.07-15.33Q143.61-13.73 143.61-11.80L143.61-11.80Q143.61-11.13 143.55-10.57Q143.50-10 143.42-9.59L143.42-9.59Q143.34-9.10 143.24-8.71L143.24-8.71L130.43-8.77Q130.45-7.03 130.80-5.89Q131.15-4.75 131.85-4.08Q132.54-3.42 133.59-3.15Q134.65-2.89 136.09-2.89L136.09-2.89Q137.32-2.89 138.30-3.05Q139.28-3.20 139.96-3.42L139.96-3.42Q140.74-3.65 141.37-3.96L141.37-3.96Q141.66-3.28 141.83-2.70Q141.99-2.11 142.07-1.68L142.07-1.68Q142.15-1.17 142.19-0.78L142.19-0.78Q141.54-0.45 140.63-0.20L140.63-0.20Q139.84 0.02 138.71 0.21Q137.58 0.39 136.09 0.39L136.09 0.39Q133.75 0.39 131.92-0.14Q130.10-0.66 128.84-1.87Q127.58-3.07 126.92-5.01Q126.27-6.95 126.27-9.79ZM130.49-11.62L139.43-11.62L139.43-12.29Q139.43-13.52 139.13-14.46Q138.83-15.41 138.30-16.05Q137.77-16.70 137.05-17.03Q136.33-17.36 135.49-17.36L135.49-17.36Q134.26-17.36 133.32-17.04Q132.38-16.72 131.75-16.03Q131.11-15.33 130.80-14.24Q130.49-13.14 130.49-11.62L130.49-11.62Z"/></g>
</svg>
</g></svg></svg>